<svg width="64" height="64" viewBox="0 0 64 64" fill="none" xmlns="http://www.w3.org/2000/svg">
  <rect x="4" y="4" width="56" height="56" rx="18" fill="#0D1110"/>
  <rect x="5" y="5" width="54" height="54" rx="17" stroke="rgba(255,255,255,0.14)" stroke-width="2"/>
  <path d="M15 16C15 12.6863 17.6863 10 21 10H43C46.3137 10 49 12.6863 49 16V48C49 51.3137 46.3137 54 43 54H21C17.6863 54 15 51.3137 15 48V16Z" fill="url(#surface)"/>
  <rect x="19" y="18" width="10" height="10" rx="4" fill="url(#cyan)"/>
  <rect x="35" y="18" width="10" height="10" rx="4" fill="url(#amber)"/>
  <rect x="19" y="34" width="26" height="12" rx="5" fill="#DCE4EA"/>
  <defs>
    <linearGradient id="surface" x1="15" y1="10" x2="49" y2="54" gradientUnits="userSpaceOnUse">
      <stop stop-color="#16201E"/>
      <stop offset="1" stop-color="#101617"/>
    </linearGradient>
    <linearGradient id="cyan" x1="19" y1="18" x2="29" y2="28" gradientUnits="userSpaceOnUse">
      <stop stop-color="#84DBF2"/>
      <stop offset="1" stop-color="#56A9E8"/>
    </linearGradient>
    <linearGradient id="amber" x1="35" y1="18" x2="45" y2="28" gradientUnits="userSpaceOnUse">
      <stop stop-color="#FFD58B"/>
      <stop offset="1" stop-color="#F4A63C"/>
    </linearGradient>
  </defs>
</svg>
